<?xml version="1.0" encoding="utf-8"?>
<?xml-stylesheet type="text/xsl" href="rss1.xsl"?>
<rss version="2.0" xmlns:atom="http://www.w3.org/2005/Atom" xmlns:content="http://purl.org/rss/1.0/modules/content/" xmlns:dc="http://purl.org/dc/elements/1.1/" xmlns:media="http://search.yahoo.com/mrss/">
<channel>
 <title>Getty</title>
 <link>http://www.gettyimg.com/</link>
 <atom:link href="http://www.gettyimg.com/" rel="self" type="application/rss+xml" />

 
                <item>
                <title><![CDATA[【Cinema Center】MOVIE - Ill.Be.Home.for.Christmas.1998.1080p.DSNP.WEB-DL.DDP5.1.H.264-Samuel]]></title>
                <link><![CDATA[https://sharemania.us/threads/ill-be-home-for-christmas-1998-1080p-dsnp-web-dl-ddp5-1-h-264-samuel.245334/]]></link>
                <description><![CDATA[<article>
<blockquote class="messageText SelectQuoteContainer ugc baseHtml">
<div style="text-align: center"><b><span style="font-size: 26px">I'll Be Home for Christmas</span></b><br>
<img src="https://i.imgur.com/SRVOd4a.jpg" class="bbCodeImage LbImage" alt="[​IMG]" data-url="https://i.imgur.com/SRVOd4a.jpg" style=""><br>
<b><a href="https://i.imgur.com/3l8V4Q8.jpeg" target="_blank" class="externalLink" rel="nofollow">Alternate Artwork 1</a></b> | <b><a href="https://i.imgur.com/HmJw15S.jpeg" target="_blank" class="externalLink" rel="nofollow">Alternate Artwork 2</a></b> | <b><a href="https://i.imgur.com/oP294ph.jpeg" target="_blank" class="externalLink" rel="nofollow">Alternate Artwork 3</a></b> | <b><a href="https://i.imgur.com/e4GqwkZ.png" target="_blank" class="externalLink" rel="nofollow">Alternate Artwork 4</a></b> | <b><a href="https://i.imgur.com/CSlCSNl.png" target="_blank" class="externalLink" rel="nofollow">Alternate Artwork 5</a></b> | <b><a href="https://i.imgur.com/saaHHkj.jpeg" target="_blank" class="externalLink" rel="nofollow">Alternate Artwork 6</a></b> | <b><a href="https://i.imgur.com/mOJZojq.jpeg" target="_blank" class="externalLink" rel="nofollow">Alternate Artwork 7</a></b> | <b><a href="https://i.imgur.com/8DvuwvN.jpeg" target="_blank" class="externalLink" rel="nofollow">Alternate Artwork 8</a></b> | <b><a href="https://i.imgur.com/grxLQ6u.jpg" target="_blank" class="externalLink" rel="nofollow">Header 1</a></b> | <b><a href="https://i.imgur.com/15lTpgG.jpg" target="_blank" class="externalLink" rel="nofollow">Header 2</a></b> | <b><a href="https://i.imgur.com/iatAlyN.png" target="_blank" class="externalLink" rel="nofollow">Poster 1</a></b> | <b><a href="https://i.imgur.com/CYgXBaD.png" target="_blank" class="externalLink" rel="nofollow">Poster 2</a></b> | <b><a href="https://i.imgur.com/JUK8aYJ.jpg" target="_blank" class="externalLink" rel="nofollow">Poster 3</a></b> | <b><a href="https://i.imgur.com/NWVpQRz.jpg" target="_blank" class="externalLink" rel="nofollow">Poster 4</a></b> | <b><a href="https://i.imgur.com/OIWbWYK.jpeg" target="_blank" class="externalLink" rel="nofollow">Poster 5</a></b> | <b><a href="https://i.imgur.com/oJ3lJZk.jpeg" target="_blank" class="externalLink" rel="nofollow">Thumbnail 1</a></b> | <b><a href="https://i.imgur.com/kKHppP0.jpeg" target="_blank" class="externalLink" rel="nofollow">Thumbnail 2</a></b> | <b><a href="https://i.imgur.com/XkmZV7D.jpeg" target="_blank" class="externalLink" rel="nofollow">Thumbnail 3</a></b> | <b><a href="https://i.imgur.com/kqeWDho.jpeg" target="_blank" class="externalLink" rel="nofollow">Key Art</a></b><br>
<br>
<img src="https://i.imgur.com/qhRKRmw.png" class="bbCodeImage LbImage" alt="[​IMG]" data-url="https://i.imgur.com/qhRKRmw.png" style=""> <img src="https://i.imgur.com/ckHEWYh.png" class="bbCodeImage LbImage" alt="[​IMG]" data-url="https://i.imgur.com/ckHEWYh.png" style=""> <img src="https://i.imgur.com/YMzRyyQ.png" class="bbCodeImage LbImage" alt="[​IMG]" data-url="https://i.imgur.com/YMzRyyQ.png" style=""> <img src="https://i.imgur.com/p2a3QKq.png" class="bbCodeImage LbImage" alt="[​IMG]" data-url="https://i.imgur.com/p2a3QKq.png" style=""><br>
1998 • 1h 27m<br>
Coming of Age, Comedy, Action-Adventure<br>
<br>
<div class="bbCodeBlock bbCodeQuote">
<aside>
<blockquote class="quoteContainer"><div class="quote"><b><span style="font-size: 15px"><span style="font-family: 'Arial'">Description</span></span></b><br>
Self-centered college student Jake is in a rush to get home for the holidays. But it isn't because he's excited to share Christmas with his family—it's because he'll be rewarded with his dad's vintage car if he makes it on time. Desperate to claim his gift, he flies, crawls and even sleighs his way east...and along the way, he might even learn the true meaning of Christmas.</div><div class="quoteExpand">Click to expand...</div></blockquote>
</aside>
</div>
<div class="bbCodeBlock bbCodeQuote">
<aside>
<blockquote class="quoteContainer"><div class="quote"><b><span style="font-size: 15px"><span style="font-family: 'Arial'">Trailers</span></span></b><br>
<span data-s9e-mediaembed="googledrive" style="display:inline-block;width:100%;max-width:640px"><span style="display:block;overflow:hidden;position:relative;padding-bottom:75%"><iframe allowfullscreen="" loading="lazy" scrolling="no" src="//drive.google.com/file/d/1ITP-CuxyU0c4zPprpSJw_Udw-KVb5DJQ/preview" style="border:0;height:100%;left:0;position:absolute;width:100%"></iframe></span></span><br>
<b>I'll Be Home for Christmas | Trailer</b></div><div class="quoteExpand quoteCut">Click to expand...</div></blockquote>
</aside>
</div>
<div class="bbCodeBlock bbCodeQuote">
<aside>
<blockquote class="quoteContainer"><div class="quote"><b><span style="font-size: 15px"><span style="font-family: 'Arial'">More Information</span></span></b><br>
<b>Long Description:</b><br>
In the spirit of the holidays, this hilarious comedy adventure celebrates the believer in all of us. Jake Wilkinson (Jonathan Taylor Thomas), a self-centered college student, has one thing on his mind: get home for Christmas dinner or forfeit the vintage Porsche his father promised him. Just days before his deadline, Jake awakens in the California desert stranded and penniless, wearing a Santa suit and white beard. Desperate to claim his gift, he flies, crawls, cons, races, bullies and even sleighs his way east. But his nonstop mission turns into a nonstop comedy of errors as a multitude of colorful and offbeat strangers look to "Santa" for help and kindness. The closer Jake gets to home, the closer he gets to the true meaning of Christmas and the importance of family.<br>
<b>Duration:</b> 1h 27m<br>
<b>Release Date:</b> 1998<br>
<b>Genre:</b> Coming of Age, Comedy, Action-Adventure<br>
<b>Rating:</b> <img src="https://i.imgur.com/qhRKRmw.png" class="bbCodeImage LbImage" alt="[​IMG]" data-url="https://i.imgur.com/qhRKRmw.png" style=""><br>
<b>Available in the following formats:</b> <img src="https://i.imgur.com/ckHEWYh.png" class="bbCodeImage LbImage" alt="[​IMG]" data-url="https://i.imgur.com/ckHEWYh.png" style=""> <img src="https://i.imgur.com/gx1o7rO.png" class="bbCodeImage LbImage" alt="[​IMG]" data-url="https://i.imgur.com/gx1o7rO.png" style=""> <img src="https://i.imgur.com/YMzRyyQ.png" class="bbCodeImage LbImage" alt="[​IMG]" data-url="https://i.imgur.com/YMzRyyQ.png" style=""> <img src="https://i.imgur.com/p2a3QKq.png" class="bbCodeImage LbImage" alt="[​IMG]" data-url="https://i.imgur.com/p2a3QKq.png" style=""><br>
<b>Director:</b> Arlene Sanford<br>
<b>Starring:</b> Jonathan Taylor Thomas, Jessica Biel, Adam LaVorgna, Gary Cole, Eve Gordon, Lauren Maltby</div><div class="quoteExpand quoteCut">Click to expand...</div></blockquote>
</aside>
</div>
<div class="bbCodeBlock bbCodeQuote">
<aside>
<blockquote class="quoteContainer"><div class="quote"><b><span style="font-size: 15px">Source</span></b><br>
<img src="https://i.imgur.com/I198e8q.png" class="bbCodeImage LbImage" alt="[​IMG]" data-url="https://i.imgur.com/I198e8q.png" style=""></div><div class="quoteExpand">Click to expand...</div></blockquote>
</aside>
</div>
<div class="bbCodeBlock bbCodeQuote">
<aside>
<blockquote class="quoteContainer"><div class="quote"><b><span style="font-size: 15px">Release Name</span></b><br>
Ill.Be.Home.for.Christmas.1998.1080p.DSNP.WEB-DL.DDP5.1.H.264-Samuel</div><div class="quoteExpand">Click to expand...</div></blockquote>
</aside>
</div>
<div class="ToggleTriggerAnchor bbCodeSpoilerContainer">
<button type="button" class="button bbCodeSpoilerButton ToggleTrigger Tooltip JsOnly" data-target="> .SpoilerTarget"><span>Spoiler: <span class="SpoilerTitle">Media Information</span></span></button>
<div class="SpoilerTarget bbCodeSpoilerText">General<br>
Complete name : Ill.Be.Home.for.Christmas.1998.1080p.DSNP.WEB-DL.DDP5.1.H.264-Samuel.mkv<br>
Format : Matroska<br>
Format version : Version 4<br>
File size : 6.47 GiB<br>
Duration : 1 h 26 min<br>
Overall bit rate mode : Variable<br>
Overall bit rate : 10.8 Mb/s<br>
Frame rate : 23.976 FPS<br>
Encoded date : 2024-05-26 15:32:24 UTC<br>
Writing application : mkvmerge v84.0 ('Sleeper') 64-bit<br>
Writing library : libebml v1.4.5 + libmatroska v1.7.1<br>
<br>
Video<br>
ID : 1<br>
Format : AVC<br>
Format/Info : Advanced Video Codec<br>
Format profile : High@L4<br>
Format settings : CABAC / 4 Ref Frames<br>
Format settings, CABAC : Yes<br>
Format settings, Reference frames : 4 frames<br>
Codec ID : V_MPEG4/ISO/AVC<br>
Duration : 1 h 26 min<br>
Bit rate mode : Variable<br>
Bit rate : 8 465 kb/s<br>
Maximum bit rate : 12.7 Mb/s<br>
Width : 1 920 pixels<br>
Height : 1 080 pixels<br>
Display aspect ratio : 16:9<br>
Frame rate mode : Constant<br>
Frame rate : 23.976 (24000/1001) FPS<br>
Color space : YUV<br>
Chroma subsampling : 4:2:0<br>
Bit depth : 8 bits<br>
Scan type : Progressive<br>
Bits/(Pixel*Frame) : 0.170<br>
Time code of first frame : 00:00:00;00<br>
Stream size : 5.09 GiB (79%)<br>
Default : Yes<br>
Forced : No<br>
Color range : Limited<br>
Color primaries : BT.709<br>
Transfer characteristics : BT.709<br>
Matrix coefficients : BT.709<br>
<br>
Audio #1<br>
ID : 2<br>
Format : E-AC-3<br>
Format/Info : Enhanced AC-3<br>
Commercial name : Dolby Digital Plus<br>
Codec ID : A_EAC3<br>
Duration : 1 h 26 min<br>
Bit rate mode : Constant<br>
Bit rate : 256 kb/s<br>
Channel(s) : 6 channels<br>
Channel layout : L R C LFE Ls Rs<br>
Sampling rate : 48.0 kHz<br>
Frame rate : 31.250 FPS (1536 SPF)<br>
Compression mode : Lossy<br>
Stream size : 158 MiB (2%)<br>
Language : English<br>
Service kind : Complete Main<br>
Default : Yes<br>
Forced : No<br>
Dialog Normalization : -26 dB<br>
compr : -0.28 dB<br>
mixlevel : 105 dB<br>
roomtyp : Small<br>
ltrtcmixlev : 3.0 dB<br>
ltrtsurmixlev : -3.0 dB<br>
lorocmixlev : 3.0 dB<br>
lorosurmixlev : -3.0 dB<br>
dialnorm_Average : -26 dB<br>
dialnorm_Minimum : -26 dB<br>
dialnorm_Maximum : -26 dB<br>
<br>
Audio #2<br>
ID : 3<br>
Format : AAC LC<br>
Format/Info : Advanced Audio Codec Low Complexity<br>
Codec ID : A_AAC-2<br>
Duration : 1 h 26 min<br>
Bit rate : 125 kb/s<br>
Channel(s) : 2 channels<br>
Channel layout : L R<br>
Sampling rate : 48.0 kHz<br>
Frame rate : 46.875 FPS (1024 SPF)<br>
Compression mode : Lossy<br>
Stream size : 77.2 MiB (1%)<br>
Title : Audio Description<br>
Language : English<br>
Default : No<br>
Forced : No<br>
<br>
Audio #3<br>
ID : 4<br>
Format : AAC LC<br>
Format/Info : Advanced Audio Codec Low Complexity<br>
Codec ID : A_AAC-2<br>
Duration : 1 h 26 min<br>
Bit rate : 125 kb/s<br>
Channel(s) : 2 channels<br>
Channel layout : L R<br>
Sampling rate : 48.0 kHz<br>
Frame rate : 46.875 FPS (1024 SPF)<br>
Compression mode : Lossy<br>
Stream size : 77.2 MiB (1%)<br>
Title : Taiwanese Mandarin<br>
Language : Chinese<br>
Default : No<br>
Forced : No<br>
<br>
Audio #4<br>
ID : 5<br>
Format : E-AC-3<br>
Format/Info : Enhanced AC-3<br>
Commercial name : Dolby Digital Plus<br>
Codec ID : A_EAC3<br>
Duration : 1 h 26 min<br>
Bit rate mode : Constant<br>
Bit rate : 256 kb/s<br>
Channel(s) : 6 channels<br>
Channel layout : L R C LFE Ls Rs<br>
Sampling rate : 48.0 kHz<br>
Frame rate : 31.250 FPS (1536 SPF)<br>
Compression mode : Lossy<br>
Stream size : 158 MiB (2%)<br>
Language : German<br>
Service kind : Complete Main<br>
Default : No<br>
Forced : No<br>
Dialog Normalization : -31 dB<br>
compr : -0.28 dB<br>
mixlevel : 105 dB<br>
roomtyp : Small<br>
ltrtcmixlev : 3.0 dB<br>
ltrtsurmixlev : -3.0 dB<br>
lorocmixlev : 3.0 dB<br>
lorosurmixlev : -3.0 dB<br>
dialnorm_Average : -31 dB<br>
dialnorm_Minimum : -31 dB<br>
dialnorm_Maximum : -31 dB<br>
<br>
Audio #5<br>
ID : 6<br>
Format : AAC LC<br>
Format/Info : Advanced Audio Codec Low Complexity<br>
Codec ID : A_AAC-2<br>
Duration : 1 h 26 min<br>
Bit rate : 125 kb/s<br>
Channel(s) : 2 channels<br>
Channel layout : L R<br>
Sampling rate : 48.0 kHz<br>
Frame rate : 46.875 FPS (1024 SPF)<br>
Compression mode : Lossy<br>
Stream size : 77.2 MiB (1%)<br>
Title : Latin American<br>
Language : Spanish<br>
Default : No<br>
Forced : No<br>
<br>
Audio #6<br>
ID : 7<br>
Format : E-AC-3<br>
Format/Info : Enhanced AC-3<br>
Commercial name : Dolby Digital Plus<br>
Codec ID : A_EAC3<br>
Duration : 1 h 26 min<br>
Bit rate mode : Constant<br>
Bit rate : 256 kb/s<br>
Channel(s) : 6 channels<br>
Channel layout : L R C LFE Ls Rs<br>
Sampling rate : 48.0 kHz<br>
Frame rate : 31.250 FPS (1536 SPF)<br>
Compression mode : Lossy<br>
Stream size : 158 MiB (2%)<br>
Title : European<br>
Language : Spanish<br>
Service kind : Complete Main<br>
Default : No<br>
Forced : No<br>
Dialog Normalization : -28 dB<br>
compr : -0.28 dB<br>
mixlevel : 105 dB<br>
roomtyp : Small<br>
ltrtcmixlev : 3.0 dB<br>
ltrtsurmixlev : -3.0 dB<br>
lorocmixlev : 3.0 dB<br>
lorosurmixlev : -3.0 dB<br>
dialnorm_Average : -28 dB<br>
dialnorm_Minimum : -28 dB<br>
dialnorm_Maximum : -28 dB<br>
<br>
Audio #7<br>
ID : 8<br>
Format : AAC LC<br>
Format/Info : Advanced Audio Codec Low Complexity<br>
Codec ID : A_AAC-2<br>
Duration : 1 h 26 min<br>
Bit rate : 125 kb/s<br>
Channel(s) : 2 channels<br>
Channel layout : L R<br>
Sampling rate : 48.0 kHz<br>
Frame rate : 46.875 FPS (1024 SPF)<br>
Compression mode : Lossy<br>
Stream size : 77.2 MiB (1%)<br>
Title : Canadian<br>
Language : French<br>
Default : No<br>
Forced : No<br>
<br>
Audio #8<br>
ID : 9<br>
Format : AAC LC<br>
Format/Info : Advanced Audio Codec Low Complexity<br>
Codec ID : A_AAC-2<br>
Duration : 1 h 26 min<br>
Bit rate : 125 kb/s<br>
Channel(s) : 2 channels<br>
Channel layout : L R<br>
Sampling rate : 48.0 kHz<br>
Frame rate : 46.875 FPS (1024 SPF)<br>
Compression mode : Lossy<br>
Stream size : 77.2 MiB (1%)<br>
Language : French<br>
Default : No<br>
Forced : No<br>
<br>
Audio #9<br>
ID : 10<br>
Format : AAC LC<br>
Format/Info : Advanced Audio Codec Low Complexity<br>
Codec ID : A_AAC-2<br>
Duration : 1 h 26 min<br>
Bit rate : 125 kb/s<br>
Channel(s) : 2 channels<br>
Channel layout : L R<br>
Sampling rate : 48.0 kHz<br>
Frame rate : 46.875 FPS (1024 SPF)<br>
Compression mode : Lossy<br>
Stream size : 77.2 MiB (1%)<br>
Language : Hungarian<br>
Default : No<br>
Forced : No<br>
<br>
Audio #10<br>
ID : 11<br>
Format : AAC LC<br>
Format/Info : Advanced Audio Codec Low Complexity<br>
Codec ID : A_AAC-2<br>
Duration : 1 h 26 min<br>
Bit rate : 125 kb/s<br>
Channel(s) : 2 channels<br>
Channel layout : L R<br>
Sampling rate : 48.0 kHz<br>
Frame rate : 46.875 FPS (1024 SPF)<br>
Compression mode : Lossy<br>
Stream size : 77.2 MiB (1%)<br>
Language : Italian<br>
Default : No<br>
Forced : No<br>
<br>
Audio #11<br>
ID : 12<br>
Format : AAC LC<br>
Format/Info : Advanced Audio Codec Low Complexity<br>
Codec ID : A_AAC-2<br>
Duration : 1 h 26 min<br>
Bit rate : 125 kb/s<br>
Channel(s) : 2 channels<br>
Channel layout : L R<br>
Sampling rate : 48.0 kHz<br>
Frame rate : 46.875 FPS (1024 SPF)<br>
Compression mode : Lossy<br>
Stream size : 77.2 MiB (1%)<br>
Language : Japanese<br>
Default : No<br>
Forced : No<br>
<br>
Audio #12<br>
ID : 13<br>
Format : AAC LC<br>
Format/Info : Advanced Audio Codec Low Complexity<br>
Codec ID : A_AAC-2<br>
Duration : 1 h 26 min<br>
Bit rate : 125 kb/s<br>
Channel(s) : 2 channels<br>
Channel layout : L R<br>
Sampling rate : 48.0 kHz<br>
Frame rate : 46.875 FPS (1024 SPF)<br>
Compression mode : Lossy<br>
Stream size : 77.2 MiB (1%)<br>
Language : Dutch<br>
Default : No<br>
Forced : No<br>
<br>
Audio #13<br>
ID : 14<br>
Format : AAC LC<br>
Format/Info : Advanced Audio Codec Low Complexity<br>
Codec ID : A_AAC-2<br>
Duration : 1 h 26 min<br>
Bit rate : 125 kb/s<br>
Channel(s) : 2 channels<br>
Channel layout : L R<br>
Sampling rate : 48.0 kHz<br>
Frame rate : 46.875 FPS (1024 SPF)<br>
Compression mode : Lossy<br>
Stream size : 77.2 MiB (1%)<br>
Language : Polish<br>
Default : No<br>
Forced : No<br>
<br>
Audio #14<br>
ID : 15<br>
Format : AAC LC<br>
Format/Info : Advanced Audio Codec Low Complexity<br>
Codec ID : A_AAC-2<br>
Duration : 1 h 26 min<br>
Bit rate : 125 kb/s<br>
Channel(s) : 2 channels<br>
Channel layout : L R<br>
Sampling rate : 48.0 kHz<br>
Frame rate : 46.875 FPS (1024 SPF)<br>
Compression mode : Lossy<br>
Stream size : 77.2 MiB (1%)<br>
Title : Brazilian<br>
Language : Portuguese<br>
Default : No<br>
Forced : No<br>
<br>
Audio #15<br>
ID : 16<br>
Format : AAC LC<br>
Format/Info : Advanced Audio Codec Low Complexity<br>
Codec ID : A_AAC-2<br>
Duration : 1 h 26 min<br>
Bit rate : 125 kb/s<br>
Channel(s) : 2 channels<br>
Channel layout : L R<br>
Sampling rate : 48.0 kHz<br>
Frame rate : 46.875 FPS (1024 SPF)<br>
Compression mode : Lossy<br>
Stream size : 77.2 MiB (1%)<br>
Language : Turkish<br>
Default : No<br>
Forced : No<br>
<br>
Text #1<br>
ID : 17<br>
Format : UTF-8<br>
Codec ID : S_TEXT/UTF8<br>
Codec ID/Info : UTF-8 Plain Text<br>
Duration : 1 h 25 min<br>
Bit rate : 86 b/s<br>
Frame rate : 0.277 FPS<br>
Count of elements : 1429<br>
Stream size : 54.6 KiB (0%)<br>
Title : SDH<br>
Language : English<br>
Default : No<br>
Forced : No<br>
<br>
Text #2<br>
ID : 18<br>
Format : UTF-8<br>
Codec ID : S_TEXT/UTF8<br>
Codec ID/Info : UTF-8 Plain Text<br>
Duration : 1 h 25 min<br>
Bit rate : 70 b/s<br>
Frame rate : 0.234 FPS<br>
Count of elements : 1205<br>
Stream size : 44.1 KiB (0%)<br>
Language : Czech<br>
Default : No<br>
Forced : No<br>
<br>
Text #3<br>
ID : 19<br>
Format : UTF-8<br>
Codec ID : S_TEXT/UTF8<br>
Codec ID/Info : UTF-8 Plain Text<br>
Duration : 1 h 19 min<br>
Bit rate : 54 b/s<br>
Frame rate : 0.197 FPS<br>
Count of elements : 935<br>
Stream size : 31.5 KiB (0%)<br>
Language : Danish<br>
Default : No<br>
Forced : No<br>
<br>
Text #4<br>
ID : 20<br>
Format : UTF-8<br>
Codec ID : S_TEXT/UTF8<br>
Codec ID/Info : UTF-8 Plain Text<br>
Duration : 1 h 19 min<br>
Bit rate : 0 b/s<br>
Frame rate : 0.002 FPS<br>
Count of elements : 11<br>
Stream size : 308 Bytes (0%)<br>
Title : Forced<br>
Language : German<br>
Default : No<br>
Forced : Yes<br>
<br>
Text #5<br>
ID : 21<br>
Format : UTF-8<br>
Codec ID : S_TEXT/UTF8<br>
Codec ID/Info : UTF-8 Plain Text<br>
Duration : 1 h 19 min<br>
Bit rate : 66 b/s<br>
Frame rate : 0.197 FPS<br>
Count of elements : 935<br>
Stream size : 38.5 KiB (0%)<br>
Language : German<br>
Default : No<br>
Forced : No<br>
<br>
Text #6<br>
ID : 22<br>
Format : UTF-8<br>
Codec ID : S_TEXT/UTF8<br>
Codec ID/Info : UTF-8 Plain Text<br>
Duration : 1 h 18 min<br>
Bit rate : 108 b/s<br>
Frame rate : 0.211 FPS<br>
Count of elements : 999<br>
Stream size : 62.7 KiB (0%)<br>
Language : Greek<br>
Default : No<br>
Forced : No<br>
<br>
Text #7<br>
ID : 23<br>
Format : UTF-8<br>
Codec ID : S_TEXT/UTF8<br>
Codec ID/Info : UTF-8 Plain Text<br>
Duration : 1 h 20 min<br>
Bit rate : 57 b/s<br>
Frame rate : 0.200 FPS<br>
Count of elements : 973<br>
Stream size : 34.2 KiB (0%)<br>
Title : Latin American<br>
Language : Spanish<br>
Default : No<br>
Forced : No<br>
<br>
Text #8<br>
ID : 24<br>
Format : UTF-8<br>
Codec ID : S_TEXT/UTF8<br>
Codec ID/Info : UTF-8 Plain Text<br>
Duration : 1 h 19 min<br>
Bit rate : 0 b/s<br>
Frame rate : 0.003 FPS<br>
Count of elements : 15<br>
Stream size : 338 Bytes (0%)<br>
Title : European (Forced)<br>
Language : Spanish<br>
Default : No<br>
Forced : Yes<br>
<br>
Text #9<br>
ID : 25<br>
Format : UTF-8<br>
Codec ID : S_TEXT/UTF8<br>
Codec ID/Info : UTF-8 Plain Text<br>
Duration : 1 h 20 min<br>
Bit rate : 57 b/s<br>
Frame rate : 0.239 FPS<br>
Count of elements : 1158<br>
Stream size : 33.7 KiB (0%)<br>
Title : European<br>
Language : Spanish<br>
Default : No<br>
Forced : No<br>
<br>
Text #10<br>
ID : 26<br>
Format : UTF-8<br>
Codec ID : S_TEXT/UTF8<br>
Codec ID/Info : UTF-8 Plain Text<br>
Duration : 1 h 19 min<br>
Bit rate : 51 b/s<br>
Frame rate : 0.197 FPS<br>
Count of elements : 936<br>
Stream size : 29.7 KiB (0%)<br>
Language : Finnish<br>
Default : No<br>
Forced : No<br>
<br>
Text #11<br>
ID : 27<br>
Format : UTF-8<br>
Codec ID : S_TEXT/UTF8<br>
Codec ID/Info : UTF-8 Plain Text<br>
Duration : 1 h 21 min<br>
Bit rate : 81 b/s<br>
Frame rate : 0.238 FPS<br>
Count of elements : 1162<br>
Stream size : 48.5 KiB (0%)<br>
Title : Canadian (SDH)<br>
Language : French<br>
Default : No<br>
Forced : No<br>
<br>
Text #12<br>
ID : 28<br>
Format : UTF-8<br>
Codec ID : S_TEXT/UTF8<br>
Codec ID/Info : UTF-8 Plain Text<br>
Duration : 1 h 19 min<br>
Bit rate : 0 b/s<br>
Frame rate : 0.001 FPS<br>
Count of elements : 7<br>
Stream size : 218 Bytes (0%)<br>
Title : Forced<br>
Language : French<br>
Default : No<br>
Forced : Yes<br>
<br>
Text #13<br>
ID : 29<br>
Format : UTF-8<br>
Codec ID : S_TEXT/UTF8<br>
Codec ID/Info : UTF-8 Plain Text<br>
Duration : 1 h 19 min<br>
Bit rate : 59 b/s<br>
Frame rate : 0.197 FPS<br>
Count of elements : 935<br>
Stream size : 34.7 KiB (0%)<br>
Language : French<br>
Default : No<br>
Forced : No<br>
<br>
Text #14<br>
ID : 30<br>
Format : UTF-8<br>
Codec ID : S_TEXT/UTF8<br>
Codec ID/Info : UTF-8 Plain Text<br>
Duration : 1 h 25 min<br>
Bit rate : 53 b/s<br>
Frame rate : 0.196 FPS<br>
Count of elements : 1001<br>
Stream size : 33.6 KiB (0%)<br>
Language : Hungarian<br>
Default : No<br>
Forced : No<br>
<br>
Text #15<br>
ID : 31<br>
Format : UTF-8<br>
Codec ID : S_TEXT/UTF8<br>
Codec ID/Info : UTF-8 Plain Text<br>
Duration : 1 h 18 min<br>
Bit rate : 52 b/s<br>
Frame rate : 0.160 FPS<br>
Count of elements : 754<br>
Stream size : 30.1 KiB (0%)<br>
Language : Icelandic<br>
Default : No<br>
Forced : No<br>
<br>
Text #16<br>
ID : 32<br>
Format : UTF-8<br>
Codec ID : S_TEXT/UTF8<br>
Codec ID/Info : UTF-8 Plain Text<br>
Duration : 56 min 24 s<br>
Bit rate : 0 b/s<br>
Frame rate : 0.002 FPS<br>
Count of elements : 7<br>
Stream size : 160 Bytes (0%)<br>
Title : Forced<br>
Language : Italian<br>
Default : No<br>
Forced : Yes<br>
<br>
Text #17<br>
ID : 33<br>
Format : UTF-8<br>
Codec ID : S_TEXT/UTF8<br>
Codec ID/Info : UTF-8 Plain Text<br>
Duration : 1 h 18 min<br>
Bit rate : 56 b/s<br>
Frame rate : 0.197 FPS<br>
Count of elements : 934<br>
Stream size : 32.7 KiB (0%)<br>
Language : Italian<br>
Default : No<br>
Forced : No<br>
<br>
Text #18<br>
ID : 34<br>
Format : UTF-8<br>
Codec ID : S_TEXT/UTF8<br>
Codec ID/Info : UTF-8 Plain Text<br>
Duration : 1 h 18 min<br>
Bit rate : 42 b/s<br>
Frame rate : 0.200 FPS<br>
Count of elements : 948<br>
Stream size : 24.3 KiB (0%)<br>
Language : Japanese<br>
Default : No<br>
Forced : No<br>
<br>
Text #19<br>
ID : 35<br>
Format : UTF-8<br>
Codec ID : S_TEXT/UTF8<br>
Codec ID/Info : UTF-8 Plain Text<br>
Duration : 1 h 18 min<br>
Bit rate : 59 b/s<br>
Frame rate : 0.233 FPS<br>
Count of elements : 1104<br>
Stream size : 34.6 KiB (0%)<br>
Language : Korean<br>
Default : No<br>
Forced : No<br>
<br>
Text #20<br>
ID : 36<br>
Format : UTF-8<br>
Codec ID : S_TEXT/UTF8<br>
Codec ID/Info : UTF-8 Plain Text<br>
Duration : 1 h 18 min<br>
Bit rate : 48 b/s<br>
Frame rate : 0.152 FPS<br>
Count of elements : 717<br>
Stream size : 27.9 KiB (0%)<br>
Language : Dutch<br>
Default : No<br>
Forced : No<br>
<br>
Text #21<br>
ID : 37<br>
Format : UTF-8<br>
Codec ID : S_TEXT/UTF8<br>
Codec ID/Info : UTF-8 Plain Text<br>
Duration : 1 h 19 min<br>
Bit rate : 48 b/s<br>
Frame rate : 0.143 FPS<br>
Count of elements : 677<br>
Stream size : 27.8 KiB (0%)<br>
Language : Norwegian<br>
Default : No<br>
Forced : No<br>
<br>
Text #22<br>
ID : 38<br>
Format : UTF-8<br>
Codec ID : S_TEXT/UTF8<br>
Codec ID/Info : UTF-8 Plain Text<br>
Duration : 1 h 25 min<br>
Bit rate : 66 b/s<br>
Frame rate : 0.232 FPS<br>
Count of elements : 1195<br>
Stream size : 41.5 KiB (0%)<br>
Language : Polish<br>
Default : No<br>
Forced : No<br>
<br>
Text #23<br>
ID : 39<br>
Format : UTF-8<br>
Codec ID : S_TEXT/UTF8<br>
Codec ID/Info : UTF-8 Plain Text<br>
Duration : 1 h 20 min<br>
Bit rate : 56 b/s<br>
Frame rate : 0.201 FPS<br>
Count of elements : 976<br>
Stream size : 33.3 KiB (0%)<br>
Title : Brazilian<br>
Language : Portuguese<br>
Default : No<br>
Forced : No<br>
<br>
Text #24<br>
ID : 40<br>
Format : UTF-8<br>
Codec ID : S_TEXT/UTF8<br>
Codec ID/Info : UTF-8 Plain Text<br>
Duration : 1 h 6 min<br>
Bit rate : 0 b/s<br>
Frame rate : 0.001 FPS<br>
Count of elements : 4<br>
Stream size : 84.0 Bytes (0%)<br>
Title : Brazilian (Forced)<br>
Language : Portuguese<br>
Default : No<br>
Forced : Yes<br>
<br>
Text #25<br>
ID : 41<br>
Format : UTF-8<br>
Codec ID : S_TEXT/UTF8<br>
Codec ID/Info : UTF-8 Plain Text<br>
Duration : 1 h 20 min<br>
Bit rate : 57 b/s<br>
Frame rate : 0.207 FPS<br>
Count of elements : 1007<br>
Stream size : 34.1 KiB (0%)<br>
Title : European<br>
Language : Portuguese<br>
Default : No<br>
Forced : No<br>
<br>
Text #26<br>
ID : 42<br>
Format : UTF-8<br>
Codec ID : S_TEXT/UTF8<br>
Codec ID/Info : UTF-8 Plain Text<br>
Duration : 1 h 20 min<br>
Bit rate : 53 b/s<br>
Frame rate : 0.165 FPS<br>
Count of elements : 797<br>
Stream size : 31.6 KiB (0%)<br>
Language : Romanian<br>
Default : No<br>
Forced : No<br>
<br>
Text #27<br>
ID : 43<br>
Format : UTF-8<br>
Codec ID : S_TEXT/UTF8<br>
Codec ID/Info : UTF-8 Plain Text<br>
Duration : 1 h 20 min<br>
Bit rate : 48 b/s<br>
Frame rate : 0.136 FPS<br>
Count of elements : 658<br>
Stream size : 28.5 KiB (0%)<br>
Language : Swedish<br>
Default : No<br>
Forced : No<br>
<br>
Text #28<br>
ID : 44<br>
Format : UTF-8<br>
Codec ID : S_TEXT/UTF8<br>
Codec ID/Info : UTF-8 Plain Text<br>
Duration : 1 h 25 min<br>
Bit rate : 66 b/s<br>
Frame rate : 0.234 FPS<br>
Count of elements : 1204<br>
Stream size : 41.7 KiB (0%)<br>
Language : Turkish<br>
Default : No<br>
Forced : No<br>
<br>
Text #29<br>
ID : 45<br>
Format : UTF-8<br>
Codec ID : S_TEXT/UTF8<br>
Codec ID/Info : UTF-8 Plain Text<br>
Duration : 1 h 19 min<br>
Bit rate : 51 b/s<br>
Frame rate : 0.223 FPS<br>
Count of elements : 1058<br>
Stream size : 29.7 KiB (0%)<br>
Title : Simplified<br>
Language : Chinese<br>
Default : No<br>
Forced : No<br>
<br>
Text #30<br>
ID : 46<br>
Format : UTF-8<br>
Codec ID : S_TEXT/UTF8<br>
Codec ID/Info : UTF-8 Plain Text<br>
Duration : 1 h 20 min<br>
Bit rate : 61 b/s<br>
Frame rate : 0.344 FPS<br>
Count of elements : 1664<br>
Stream size : 36.4 KiB (0%)<br>
Title : Traditional<br>
Language : Chinese<br>
Default : No<br>
Forced : No<br>
<br>
Menu<br>
00:00:00.000 : en:Scene 1<br>
00:08:45.692 : en:Scene 2<br>
00:18:25.147 : en:Scene 3<br>
00:32:04.758 : en:Scene 4<br>
00:38:52.291 : en:Scene 5<br>
00:48:26.740 : en:Scene 6<br>
01:01:01.912 : en:Scene 7<br>
01:15:08.425 : en:Scene 8<br>
01:21:43.111 : en:Credits</div>
</div><br>
<b>Screenshots</b><br>
<img src="https://i.imgur.com/LZDkrt8.png" class="bbCodeImage LbImage" alt="[​IMG]" data-url="https://i.imgur.com/LZDkrt8.png" style=""><br>
<br>
<b>Download</b><br>
<div class="bbCodeBlock bbCodeVfcHH HiddenContent">
<div class="attribution type">Hidden Content:</div>
<blockquote>You must reply before you can see the hidden data contained here.</blockquote>
</div></div>
<div class="messageTextEndMarker">&nbsp;</div>
</blockquote>
</article>]]></description>
                <author><![CDATA[Samuel]]></author>
                </item>

                
                <item>
                <title><![CDATA[【HD Live Performances】WEB-RiP - Coldplay - BBC Radio 1's Big Weekend 2024 - Luton WEB-RiP 1080p-50fps-TPF HDMania]]></title>
                <link><![CDATA[https://sharemania.us/threads/coldplay-bbc-radio-1s-big-weekend-2024-luton-web-rip-1080p-50fps-tpf-hdmania.245332/]]></link>
                <description><![CDATA[<article>
<blockquote class="messageText SelectQuoteContainer ugc baseHtml">
<a href="https://sharemania.us/members/19910/" class="username" data-user="19910, @OhSnapItzTrey">@OhSnapItzTrey</a> Request Completed.
<div class="messageTextEndMarker">&nbsp;</div>
</blockquote>
</article>]]></description>
                <author><![CDATA[ThePixelFarm]]></author>
                </item>

                
                <item>
                <title><![CDATA[【Requests】[REQ AUD] - Ladies' Code Discography (FLAC or WAV)]]></title>
                <link><![CDATA[https://sharemania.us/threads/ladies-code-discography-flac-or-wav.245333/]]></link>
                <description><![CDATA[<article>
<blockquote class="messageText SelectQuoteContainer ugc baseHtml">
<div style="text-align: center"><img src="https://i.postimg.cc/CMQ4Lhjf/BBC-Radio-1-s-Big-Weekend-2024-COLDPLAY-Banner.png" class="bbCodeImage LbImage" alt="[​IMG]" data-url="https://i.postimg.cc/CMQ4Lhjf/BBC-Radio-1-s-Big-Weekend-2024-COLDPLAY-Banner.png" style=""><br>
<b><span style="font-size: 18px">Coldplay - BBC Radio 1's Big Weekend 2024 - Luton WEB-RiP 1080p-50fps-TPF HDMania</span></b><br>
<span style="font-size: 12px"><i>Coldplay close Radio 1’s Big Weekend at Stockwood Park in Luton.</i></span><br>
<img src="https://i.postimg.cc/hvyjzqTC/BBC-Radio-1-s-Big-Weekend-2024-Half-Banner.png" class="bbCodeImage LbImage" alt="[​IMG]" data-url="https://i.postimg.cc/hvyjzqTC/BBC-Radio-1-s-Big-Weekend-2024-Half-Banner.png" style=""><br>
<img src="https://i.postimg.cc/KY32wvrr/Coldplay-BBC-Radio-1-s-Big-Weekend-2024-Luton-WEB-Ri-P-1080p-50fps-TPF-HDMania-0-1920x1080.jpg" class="bbCodeImage LbImage" alt="[​IMG]" data-url="https://i.postimg.cc/KY32wvrr/Coldplay-BBC-Radio-1-s-Big-Weekend-2024-Luton-WEB-Ri-P-1080p-50fps-TPF-HDMania-0-1920x1080.jpg" style=""><br>
<img src="https://i.postimg.cc/BZ8Rd0wM/BBC-Radio-1-s-Big-Weekend-2024-Luton-WEB-Ri-P-1080p-50fps-TPF-HDMania-00.png" class="bbCodeImage LbImage" alt="[​IMG]" data-url="https://i.postimg.cc/BZ8Rd0wM/BBC-Radio-1-s-Big-Weekend-2024-Luton-WEB-Ri-P-1080p-50fps-TPF-HDMania-00.png" style=""><br>
<img src="https://i.postimg.cc/vZRCqFHC/Coldplay-BBC-Radio-1-s-Big-Weekend-2024-Luton-WEB-Ri-P-1080p-50fps-TPF-HDMania.jpg" class="bbCodeImage LbImage" alt="[​IMG]" data-url="https://i.postimg.cc/vZRCqFHC/Coldplay-BBC-Radio-1-s-Big-Weekend-2024-Luton-WEB-Ri-P-1080p-50fps-TPF-HDMania.jpg" style="">
<div class="ToggleTriggerAnchor bbCodeSpoilerContainer">
<button type="button" class="button bbCodeSpoilerButton ToggleTrigger Tooltip JsOnly" data-target="> .SpoilerTarget"><span>Spoiler: <span class="SpoilerTitle">MediaInfo.</span></span></button>
<div class="SpoilerTarget bbCodeSpoilerText">Size : 4.476 GB<br>
Duration : 00:58:49.09<br>
Mux type : MP4<br>
<b>Video:</b><br>
Encoding : H.264<br>
VideoStreamID : x201<br>
Frame rate : 50.00 fps<br>
Frame rate flag : Constant<br>
Encoding size : 1920 x 1080<br>
Aspect ratio : 16:9<br>
Header bit rate : 12.000 Mbps<br>
VBV buffer : 2928 KBytes<br>
Profile : High/4.2<br>
Progressive : Progressive<br>
Chroma : 4:2:0<br>
Entropy mode : CABAC<br>
Bit rate : 9.742 Mbps<br>
<b>Audio Stream: 1 (Primary)</b><br>
Codec : AAC-HE<br>
Format : RAW<br>
Channels : 2.0<br>
Language : eng<br>
PID : x202<br>
PES Stream Id : xC0<br>
Sampling rate : 48000 / 24000<br>
Sample size : 16 bits</div>
</div>
<div class="bbCodeBlock bbCodeVfcHH HiddenContent">
<div class="attribution type">Hidden Content:</div>
<blockquote>You must either reply or click 'Like' to see the hidden information contained here.</blockquote>
</div><b><span style="color: rgb(255, 0, 0)">Don't forget to <i>Like</i>, if you download...</span></b><br>
<span style="font-size: 15px"><br>
If you like, </span><i><span style="font-size: 15px">like</span></i><span style="font-size: 15px">... <img src="styles/default/xenforo/smilies/exciting-48.png" class="mceSmilie" alt=":D" title="Big Grin    :D">...I always </span><i><span style="font-size: 15px">like</span></i><span style="font-size: 15px">, back (if you leave a <i>reply</i>)... <img src="styles/default/xenforo/smilies/haha-48.png" class="mceSmilie" alt=":lol:" title="LOL    :lol:"><br>
<br>
Credit to the original capper/ripper: <i><b>Me</b></i></span>​</div>
<div class="messageTextEndMarker">&nbsp;</div>
</blockquote>
</article>]]></description>
                <author><![CDATA[loona4evaa]]></author>
                </item>

                </channel></rss>